<mxfile host="65bd71144e">
    <diagram id="NSt4wMtNX6ZRTYNoDcRp" name="ページ1">
        <mxGraphModel dx="1879" dy="897" grid="0" gridSize="10" guides="1" tooltips="1" connect="1" arrows="1" fold="1" page="1" pageScale="1" pageWidth="827" pageHeight="1169" background="#FFFFFF" math="0" shadow="0">
            <root>
                <mxCell id="0"/>
                <mxCell id="1" parent="0"/>
                <mxCell id="109" value="" style="whiteSpace=wrap;html=1;aspect=fixed;fillColor=none;strokeColor=#2d1b1b;" vertex="1" parent="1">
                    <mxGeometry x="320" y="19" width="124" height="124" as="geometry"/>
                </mxCell>
                <mxCell id="30" value="" style="shape=actor;whiteSpace=wrap;html=1;fillColor=#FFFFFF;strokeColor=#000000;" parent="1" vertex="1">
                    <mxGeometry x="181" y="43.5" width="37" height="49" as="geometry"/>
                </mxCell>
                <mxCell id="41" value="" style="endArrow=classic;html=1;strokeColor=#000000;fontColor=#000000;exitX=1;exitY=0.75;exitDx=0;exitDy=0;entryX=0;entryY=0.5;entryDx=0;entryDy=0;" parent="1" source="30" target="109" edge="1">
                    <mxGeometry width="50" height="50" relative="1" as="geometry">
                        <mxPoint x="95" y="140.5" as="sourcePoint"/>
                        <mxPoint x="161" y="137.5" as="targetPoint"/>
                    </mxGeometry>
                </mxCell>
                <mxCell id="42" value="&lt;span style=&quot;color: rgb(84, 91, 100); font-family: &amp;quot;Amazon Ember&amp;quot;, &amp;quot;Helvetica Neue&amp;quot;, Roboto, Arial, sans-serif; text-align: start;&quot;&gt;client&lt;/span&gt;" style="text;html=1;strokeColor=none;fillColor=none;align=center;verticalAlign=middle;whiteSpace=wrap;rounded=0;fontColor=#000000;" parent="1" vertex="1">
                    <mxGeometry x="169" y="88.5" width="61" height="30" as="geometry"/>
                </mxCell>
                <mxCell id="50" value="ap-northeast-1c" style="fillColor=none;strokeColor=#147EBA;dashed=1;verticalAlign=top;fontStyle=0;fontColor=#147EBA;" parent="1" vertex="1">
                    <mxGeometry x="173" y="252" width="177" height="377" as="geometry"/>
                </mxCell>
                <mxCell id="51" value="AWS Cloud" style="points=[[0,0],[0.25,0],[0.5,0],[0.75,0],[1,0],[1,0.25],[1,0.5],[1,0.75],[1,1],[0.75,1],[0.5,1],[0.25,1],[0,1],[0,0.75],[0,0.5],[0,0.25]];outlineConnect=0;gradientColor=none;html=1;whiteSpace=wrap;fontSize=12;fontStyle=0;container=0;pointerEvents=0;collapsible=0;recursiveResize=0;shape=mxgraph.aws4.group;grIcon=mxgraph.aws4.group_aws_cloud_alt;strokeColor=#232F3E;fillColor=none;verticalAlign=top;align=left;spacingLeft=30;fontColor=#232F3E;dashed=0;" parent="1" vertex="1">
                    <mxGeometry x="-8" y="162" width="661" height="640" as="geometry"/>
                </mxCell>
                <mxCell id="52" value="" style="sketch=0;points=[[0,0,0],[0.25,0,0],[0.5,0,0],[0.75,0,0],[1,0,0],[0,1,0],[0.25,1,0],[0.5,1,0],[0.75,1,0],[1,1,0],[0,0.25,0],[0,0.5,0],[0,0.75,0],[1,0.25,0],[1,0.5,0],[1,0.75,0]];outlineConnect=0;fontColor=#232F3E;gradientColor=#945DF2;gradientDirection=north;fillColor=#5A30B5;strokeColor=#ffffff;dashed=0;verticalLabelPosition=bottom;verticalAlign=top;align=center;html=1;fontSize=12;fontStyle=0;aspect=fixed;shape=mxgraph.aws4.resourceIcon;resIcon=mxgraph.aws4.route_53;" parent="1" vertex="1">
                    <mxGeometry x="532" y="178" width="45" height="45" as="geometry"/>
                </mxCell>
                <mxCell id="53" value="" style="sketch=0;points=[[0,0,0],[0.25,0,0],[0.5,0,0],[0.75,0,0],[1,0,0],[0,1,0],[0.25,1,0],[0.5,1,0],[0.75,1,0],[1,1,0],[0,0.25,0],[0,0.5,0],[0,0.75,0],[1,0.25,0],[1,0.5,0],[1,0.75,0]];outlineConnect=0;fontColor=#232F3E;gradientColor=#F54749;gradientDirection=north;fillColor=#C7131F;strokeColor=#ffffff;dashed=0;verticalLabelPosition=bottom;verticalAlign=top;align=center;html=1;fontSize=12;fontStyle=0;aspect=fixed;shape=mxgraph.aws4.resourceIcon;resIcon=mxgraph.aws4.certificate_manager_3;" parent="1" vertex="1">
                    <mxGeometry x="583" y="178" width="45" height="45" as="geometry"/>
                </mxCell>
                <mxCell id="56" value="VPC" style="points=[[0,0],[0.25,0],[0.5,0],[0.75,0],[1,0],[1,0.25],[1,0.5],[1,0.75],[1,1],[0.75,1],[0.5,1],[0.25,1],[0,1],[0,0.75],[0,0.5],[0,0.25]];outlineConnect=0;gradientColor=none;html=1;whiteSpace=wrap;fontSize=12;fontStyle=0;container=1;pointerEvents=0;collapsible=0;recursiveResize=0;shape=mxgraph.aws4.group;grIcon=mxgraph.aws4.group_vpc;strokeColor=#248814;fillColor=none;verticalAlign=top;align=left;spacingLeft=30;fontColor=#AAB7B8;dashed=0;" parent="1" vertex="1">
                    <mxGeometry x="140" y="227" width="493" height="439" as="geometry"/>
                </mxCell>
                <mxCell id="57" value="&lt;span style=&quot;color: rgb(84, 91, 100); font-family: &amp;quot;Amazon Ember&amp;quot;, &amp;quot;Helvetica Neue&amp;quot;, Roboto, Arial, sans-serif; text-align: start;&quot;&gt;10.0.0.0/16&lt;/span&gt;" style="text;html=1;strokeColor=none;fillColor=none;align=center;verticalAlign=middle;whiteSpace=wrap;rounded=0;fontColor=#000000;" parent="56" vertex="1">
                    <mxGeometry x="422" y="409" width="60" height="30" as="geometry"/>
                </mxCell>
                <mxCell id="58" value="Private subnet" style="points=[[0,0],[0.25,0],[0.5,0],[0.75,0],[1,0],[1,0.25],[1,0.5],[1,0.75],[1,1],[0.75,1],[0.5,1],[0.25,1],[0,1],[0,0.75],[0,0.5],[0,0.25]];outlineConnect=0;gradientColor=none;html=1;whiteSpace=wrap;fontSize=12;fontStyle=0;container=1;pointerEvents=0;collapsible=0;recursiveResize=0;shape=mxgraph.aws4.group;grIcon=mxgraph.aws4.group_security_group;grStroke=0;strokeColor=#147EBA;fillColor=#E6F2F8;verticalAlign=top;align=left;spacingLeft=30;fontColor=#147EBA;dashed=0;" parent="1" vertex="1">
                    <mxGeometry x="190" y="461" width="150" height="151" as="geometry"/>
                </mxCell>
                <mxCell id="59" value="" style="sketch=0;points=[[0,0,0],[0.25,0,0],[0.5,0,0],[0.75,0,0],[1,0,0],[0,1,0],[0.25,1,0],[0.5,1,0],[0.75,1,0],[1,1,0],[0,0.25,0],[0,0.5,0],[0,0.75,0],[1,0.25,0],[1,0.5,0],[1,0.75,0]];outlineConnect=0;fontColor=#232F3E;gradientColor=#4D72F3;gradientDirection=north;fillColor=#3334B9;strokeColor=#ffffff;dashed=0;verticalLabelPosition=bottom;verticalAlign=top;align=center;html=1;fontSize=12;fontStyle=0;aspect=fixed;shape=mxgraph.aws4.resourceIcon;resIcon=mxgraph.aws4.rds;" parent="58" vertex="1">
                    <mxGeometry x="39" y="42.5" width="65" height="65" as="geometry"/>
                </mxCell>
                <mxCell id="60" value="&lt;span style=&quot;color: rgb(84, 91, 100); font-family: &amp;quot;Amazon Ember&amp;quot;, &amp;quot;Helvetica Neue&amp;quot;, Roboto, Arial, sans-serif; text-align: start;&quot;&gt;10.0.11.0/24&lt;/span&gt;" style="text;html=1;strokeColor=none;fillColor=none;align=center;verticalAlign=middle;whiteSpace=wrap;rounded=0;fontColor=#000000;" parent="58" vertex="1">
                    <mxGeometry x="87" y="121" width="60" height="30" as="geometry"/>
                </mxCell>
                <mxCell id="62" value="Public subnet" style="points=[[0,0],[0.25,0],[0.5,0],[0.75,0],[1,0],[1,0.25],[1,0.5],[1,0.75],[1,1],[0.75,1],[0.5,1],[0.25,1],[0,1],[0,0.75],[0,0.5],[0,0.25]];outlineConnect=0;gradientColor=none;html=1;whiteSpace=wrap;fontSize=12;fontStyle=0;container=1;pointerEvents=0;collapsible=0;recursiveResize=0;shape=mxgraph.aws4.group;grIcon=mxgraph.aws4.group_security_group;grStroke=0;strokeColor=#248814;fillColor=#E9F3E6;verticalAlign=top;align=left;spacingLeft=30;fontColor=#248814;dashed=0;" parent="1" vertex="1">
                    <mxGeometry x="190" y="301" width="150" height="155" as="geometry"/>
                </mxCell>
                <mxCell id="63" value="" style="sketch=0;points=[[0,0,0],[0.25,0,0],[0.5,0,0],[0.75,0,0],[1,0,0],[0,1,0],[0.25,1,0],[0.5,1,0],[0.75,1,0],[1,1,0],[0,0.25,0],[0,0.5,0],[0,0.75,0],[1,0.25,0],[1,0.5,0],[1,0.75,0]];outlineConnect=0;fontColor=#232F3E;gradientColor=#F78E04;gradientDirection=north;fillColor=#D05C17;strokeColor=#ffffff;dashed=0;verticalLabelPosition=bottom;verticalAlign=top;align=center;html=1;fontSize=12;fontStyle=0;aspect=fixed;shape=mxgraph.aws4.resourceIcon;resIcon=mxgraph.aws4.ec2;" parent="62" vertex="1">
                    <mxGeometry x="39" y="51.5" width="65" height="65" as="geometry"/>
                </mxCell>
                <mxCell id="64" value="&lt;span style=&quot;color: rgb(84, 91, 100); font-family: &amp;quot;Amazon Ember&amp;quot;, &amp;quot;Helvetica Neue&amp;quot;, Roboto, Arial, sans-serif; text-align: start;&quot;&gt;10.0.1.0/24&lt;/span&gt;" style="text;html=1;strokeColor=none;fillColor=none;align=center;verticalAlign=middle;whiteSpace=wrap;rounded=0;fontColor=#000000;" parent="62" vertex="1">
                    <mxGeometry x="90" y="125" width="60" height="30" as="geometry"/>
                </mxCell>
                <mxCell id="65" value="ap-northeast-1a&#10;" style="fillColor=none;strokeColor=#147EBA;dashed=1;verticalAlign=top;fontStyle=0;fontColor=#147EBA;" parent="1" vertex="1">
                    <mxGeometry x="410" y="251" width="190" height="380" as="geometry"/>
                </mxCell>
                <mxCell id="66" value="Private subnet" style="points=[[0,0],[0.25,0],[0.5,0],[0.75,0],[1,0],[1,0.25],[1,0.5],[1,0.75],[1,1],[0.75,1],[0.5,1],[0.25,1],[0,1],[0,0.75],[0,0.5],[0,0.25]];outlineConnect=0;gradientColor=none;html=1;whiteSpace=wrap;fontSize=12;fontStyle=0;container=1;pointerEvents=0;collapsible=0;recursiveResize=0;shape=mxgraph.aws4.group;grIcon=mxgraph.aws4.group_security_group;grStroke=0;strokeColor=#147EBA;fillColor=#E6F2F8;verticalAlign=top;align=left;spacingLeft=30;fontColor=#147EBA;dashed=0;" parent="1" vertex="1">
                    <mxGeometry x="430" y="546" width="150" height="66" as="geometry"/>
                </mxCell>
                <mxCell id="67" value="&lt;span style=&quot;color: rgb(84, 91, 100); font-family: &amp;quot;Amazon Ember&amp;quot;, &amp;quot;Helvetica Neue&amp;quot;, Roboto, Arial, sans-serif; text-align: start;&quot;&gt;10.0.10.0/24&lt;/span&gt;" style="text;html=1;strokeColor=none;fillColor=none;align=center;verticalAlign=middle;whiteSpace=wrap;rounded=0;fontColor=#000000;" parent="66" vertex="1">
                    <mxGeometry x="87" y="39" width="60" height="30" as="geometry"/>
                </mxCell>
                <mxCell id="69" value="Public subnet" style="points=[[0,0],[0.25,0],[0.5,0],[0.75,0],[1,0],[1,0.25],[1,0.5],[1,0.75],[1,1],[0.75,1],[0.5,1],[0.25,1],[0,1],[0,0.75],[0,0.5],[0,0.25]];outlineConnect=0;gradientColor=none;html=1;whiteSpace=wrap;fontSize=12;fontStyle=0;container=1;pointerEvents=0;collapsible=0;recursiveResize=0;shape=mxgraph.aws4.group;grIcon=mxgraph.aws4.group_security_group;grStroke=0;strokeColor=#248814;fillColor=#E9F3E6;verticalAlign=top;align=left;spacingLeft=30;fontColor=#248814;dashed=0;" parent="1" vertex="1">
                    <mxGeometry x="430" y="302" width="150" height="150" as="geometry"/>
                </mxCell>
                <mxCell id="70" value="&lt;span style=&quot;color: rgb(84, 91, 100); font-family: &amp;quot;Amazon Ember&amp;quot;, &amp;quot;Helvetica Neue&amp;quot;, Roboto, Arial, sans-serif; text-align: start;&quot;&gt;10.0.0.0/24&lt;/span&gt;" style="text;html=1;strokeColor=none;fillColor=none;align=center;verticalAlign=middle;whiteSpace=wrap;rounded=0;fontColor=#000000;fillStyle=auto;" parent="69" vertex="1">
                    <mxGeometry x="87" y="123.5" width="60" height="30" as="geometry"/>
                </mxCell>
                <mxCell id="71" value="" style="edgeStyle=none;html=1;strokeColor=#000000;exitX=0.5;exitY=1;exitDx=0;exitDy=0;exitPerimeter=0;entryX=0.5;entryY=0;entryDx=0;entryDy=0;entryPerimeter=0;" parent="1" source="63" target="59" edge="1">
                    <mxGeometry relative="1" as="geometry">
                        <mxPoint x="374" y="395.516393442623" as="sourcePoint"/>
                        <mxPoint x="312" y="397.04098360655735" as="targetPoint"/>
                    </mxGeometry>
                </mxCell>
                <mxCell id="96" value="" style="edgeStyle=none;html=1;" edge="1" parent="1" target="65">
                    <mxGeometry relative="1" as="geometry">
                        <mxPoint x="470.42358078602615" y="227" as="sourcePoint"/>
                    </mxGeometry>
                </mxCell>
                <mxCell id="73" value="" style="sketch=0;outlineConnect=0;fontColor=#232F3E;gradientColor=none;fillColor=#4D27AA;strokeColor=none;dashed=0;verticalLabelPosition=bottom;verticalAlign=top;align=center;html=1;fontSize=12;fontStyle=0;aspect=fixed;pointerEvents=1;shape=mxgraph.aws4.internet_gateway;" parent="1" vertex="1">
                    <mxGeometry x="360" y="206" width="45" height="45" as="geometry"/>
                </mxCell>
                <mxCell id="78" value="" style="endArrow=classic;html=1;strokeColor=#000000;fontColor=#000000;entryX=1;entryY=0.5;entryDx=0;entryDy=0;entryPerimeter=0;" parent="1" source="73" edge="1" target="63">
                    <mxGeometry width="50" height="50" relative="1" as="geometry">
                        <mxPoint x="342" y="455" as="sourcePoint"/>
                        <mxPoint x="382" y="365" as="targetPoint"/>
                        <Array as="points">
                            <mxPoint x="383" y="383"/>
                        </Array>
                    </mxGeometry>
                </mxCell>
                <mxCell id="95" value="&lt;span style=&quot;color: rgb(84, 91, 100); font-family: &amp;quot;Amazon Ember&amp;quot;, &amp;quot;Helvetica Neue&amp;quot;, Roboto, Arial, sans-serif; text-align: start;&quot;&gt;https&lt;/span&gt;" style="text;html=1;strokeColor=none;fillColor=none;align=center;verticalAlign=middle;whiteSpace=wrap;rounded=0;fontColor=#000000;" parent="1" vertex="1">
                    <mxGeometry x="250" y="83.5" width="60" height="30" as="geometry"/>
                </mxCell>
                <mxCell id="97" value="" style="sketch=0;points=[[0,0,0],[0.25,0,0],[0.5,0,0],[0.75,0,0],[1,0,0],[0,1,0],[0.25,1,0],[0.5,1,0],[0.75,1,0],[1,1,0],[0,0.25,0],[0,0.5,0],[0,0.75,0],[1,0.25,0],[1,0.5,0],[1,0.75,0]];outlineConnect=0;fontColor=#232F3E;gradientColor=#60A337;gradientDirection=north;fillColor=#277116;strokeColor=#ffffff;dashed=0;verticalLabelPosition=bottom;verticalAlign=top;align=center;html=1;fontSize=12;fontStyle=0;aspect=fixed;shape=mxgraph.aws4.resourceIcon;resIcon=mxgraph.aws4.s3;" vertex="1" parent="1">
                    <mxGeometry x="41" y="352.5" width="65" height="65" as="geometry"/>
                </mxCell>
                <mxCell id="98" value="" style="sketch=0;points=[[0,0,0],[0.25,0,0],[0.5,0,0],[0.75,0,0],[1,0,0],[0,1,0],[0.25,1,0],[0.5,1,0],[0.75,1,0],[1,1,0],[0,0.25,0],[0,0.5,0],[0,0.75,0],[1,0.25,0],[1,0.5,0],[1,0.75,0]];outlineConnect=0;fontColor=#232F3E;gradientColor=#F78E04;gradientDirection=north;fillColor=#D05C17;strokeColor=#ffffff;dashed=0;verticalLabelPosition=bottom;verticalAlign=top;align=center;html=1;fontSize=12;fontStyle=0;aspect=fixed;shape=mxgraph.aws4.resourceIcon;resIcon=mxgraph.aws4.ecr;" vertex="1" parent="1">
                    <mxGeometry x="190" y="688" width="78" height="78" as="geometry"/>
                </mxCell>
                <mxCell id="100" value="" style="sketch=0;points=[[0,0,0],[0.25,0,0],[0.5,0,0],[0.75,0,0],[1,0,0],[0,1,0],[0.25,1,0],[0.5,1,0],[0.75,1,0],[1,1,0],[0,0.25,0],[0,0.5,0],[0,0.75,0],[1,0.25,0],[1,0.5,0],[1,0.75,0]];outlineConnect=0;fontColor=#232F3E;gradientColor=#F78E04;gradientDirection=north;fillColor=#D05C17;strokeColor=#ffffff;dashed=0;verticalLabelPosition=bottom;verticalAlign=top;align=center;html=1;fontSize=12;fontStyle=0;aspect=fixed;shape=mxgraph.aws4.resourceIcon;resIcon=mxgraph.aws4.ecs;" vertex="1" parent="1">
                    <mxGeometry x="357" y="691" width="78" height="78" as="geometry"/>
                </mxCell>
                <mxCell id="102" value="" style="endArrow=classic;html=1;entryX=1;entryY=0.5;entryDx=0;entryDy=0;entryPerimeter=0;exitX=0;exitY=0.5;exitDx=0;exitDy=0;exitPerimeter=0;strokeColor=#000000;" edge="1" parent="1" source="63" target="97">
                    <mxGeometry width="50" height="50" relative="1" as="geometry">
                        <mxPoint x="292" y="483" as="sourcePoint"/>
                        <mxPoint x="342" y="433" as="targetPoint"/>
                    </mxGeometry>
                </mxCell>
                <mxCell id="103" value="" style="dashed=0;outlineConnect=0;html=1;align=center;labelPosition=center;verticalLabelPosition=bottom;verticalAlign=top;shape=mxgraph.weblogos.github" vertex="1" parent="1">
                    <mxGeometry x="727" y="428" width="75" height="75" as="geometry"/>
                </mxCell>
                <mxCell id="105" value="" style="shape=image;imageAspect=0;aspect=fixed;verticalLabelPosition=bottom;verticalAlign=top;image=data:image/png,iVBORw0KGgoAAAANSUhEUgAAAggAAAB1CAYAAAAr3xlVAAAAAXNSR0IArs4c6QAAIABJREFUeF7tnQf0dUV1xbcFsZvYFUlUwAImGnsBC6IExBYrxS52QQWsAWNsEROFoKgYUTTBYI0JdkpssbLsEewYowJqRBB74vrBvPi+t16Zcua2OWetb6Hrf+/cmT3zZs6css/F5DJD4JKSdpZ0jqQvOyyOgCPgCDgCjkDLCFys5cEvjP3Zkl4o6WBJr5T0C8fGEXAEHAFHwBFoFQFXEC6a+StLOkzSgWEh3E/SO1pdFD5uR8ARcAQcAUfAFYSL1sDjJR09txz+UtIrJJ3rS8QRcAQcAUfAEWgRAVcQpG0koRA8bmEB7Crp1BYXhY/ZEXAEHAFHwBFoXUG4pqRnSTpgyVJ4iaTDJf3Yl4kj4Ag4Ao6AI9AaAq0rCHeV9G5JW6+Y+BdIQlE4v7WF4eN1BBwBR8ARaBuBlhUEXAtYCPZZswQukHQjSf/V9jLx0TsCjoAj4Ai0hkDLCsKtJH0qYsLfKOmxnvYYgZQ/4gg4Ao6AIzAZBFpVEK4h6ThJu0fO5JUk/TTy2Sk+tqOk5xgO7HWSTjFsbyxNEfj6QElXMOjwzyU92qAdb8IRcASmicBRIYU/e3StKgjbS/paAmonSbpbwvNTexSeiKdIOtRoYFhkjjFqa0zNvEXSvSVdyqDTrEfWpYsj4Ag4AssQwDV+nRJoWlQQrijpw5Jumgjc5SX9LPGdKT1+M0kvk3QXg0F9S9L+kk42aGssTYAdY2YdWUiLv10L3LwNR6AVBFxBSJxpNtUzJO2Q+B6Pf1XSDTPem8or3HrhijjSaECY2t9q1NYYmjlR0j2MOnpjSacbteXNOAKOwDQRcAUhcV5REP438Z35x1EuyGpoVS4t6RmS/soAgPMk7RWsOQbNDbqJV0l6pJFr4QRJ+0r67aBH7J1zBByBvhFwBSFxBthUL574zvzjVHq8esH7U3j1kJAeajGWH0jarYHqmW+StJ8FYJIIsD3bqC1vxhFwBKaLgCsICXNL7IFFbYXWXQ1ATtVLql9ayJ0kfbTQsmPRjxptQMB1xBIa79xv4eJi/bk4Ao6AI7AJAVcQNiEU/s5GfZYk0hVLhQC7nSV9r7ShEb9PSWwyGlC6LOT6ksB1agJOuGMuZzAw1hvrboo4GcDjTTgCjsACAq4gRC6JB0h6g6TLRj6/6bHPSNqlcfIkClxxAFooXfeU9N6J+dVxRT1f0mM2LabIv99W0icjn/XHHAFHwBFwBSFiDdxG0r9IojCTlZwp6UBJ77JqcITtQPaDb528fguBa+F/LBoaSBvwRrzcqC+fk7S3Zy4YoenNOAJtIOAKQsQ8nybp5hHPpT7yWUmPb/xWxyH4zBA4l4rf4vOPknRsaSMDef+Pg2vh4Qb9+aIksPm0QVvehCPgCLSDgCsIG+aavPOjJf1RpTVxfEg5q9T8KJp9v6S7G/V0CgyLl5D0CEmvNcLkyZL+oXF3lhGU3owj0BQCriBsmO4PhjS6WqsC0y+8AB+o9YERtEt+P2Wxr2XQ1/8rTEM16EJxE/BkUCL8XsUtXbSuWF+sMxdHwBFwBFIQcAVhDVrknXNwYe6tKa+U9KSaHxhB21TFpDqmhTzPiIjJoi+pbVxX0t9J+ovUF1c8z7pifbk4Ao6AI5CKgCsIKxDbM9zibpKKaMbz/xkqHRII2arcR9JrjEikfizpKiMFkjTEjxj1nfVEBU3Wl4sj4Ag4AqkIuIKwAjGix59gRG0bMymYggnWI3CxVdlDEtUKS4sR/Sr478dmldk2ZHVA/FQqv5FEGimuChdHwBFwBHIQcAVhCWpUzIOc5to5iGa+Q5XHg8ItOrOJ0b9GnYsfltYfDyh8W9LtJEHFPBbZSdKXjDqLogWl9XeM2vNmHAFHoD0EXEFYMud/EwK7ul4O/y3piY1zI+DS+YKk0lLEWBHgmKDi4xjkaqHolEUhL8bNOmI9uTgCjoAjkIuAKwgLyFGOGLOsFQVw6sQQ0f/61Jcm9jzVMksVBCBBSeAm/ZCB40NaI320mnfaYR25OAKOgCNQgoArCAvokRKGBaEv+YUkaJ1P7KsDA/guDIs/NeoHsR27G7VVq5nLSCKwklLYpcK6Yf2wjlwcAUfAEShBwBWEgB43Vkh2XlWCptG7bPDvmGh1wliITpa0a+zDG547QdKDjdqq0QzcDRZCO++UdD+Lxpa0QZnzxVLn20n6J0m3WPNNlB8CUAnAnR8r/5vy6S7DR2DZ3GNtPUwS7rFV8uFAKb8YW8O8W637PtHj3MACOC83DtVqqQ+zSlDgiTk7ZuEBrKf8G4q4ghBmgkMZc/RQhLS/d0siGr1FoYDTN4zSFfHJY8I/b4BAsrmebdAvNttTJd3VoK35JnC1zSwbBO5C2Xwpo29A3jSz7vx8APMzP9bcIVIL5Ne5Ly+8B+7zrs5fGpWbj+keh94sVfgPAk8LjJxWwv728dAYv0vmfyyChROrH3IdSVDxWwkKA9w7zDXyk+AqtWo/tR1XEEKFRjIXjkhFr+LzLJBbGka1V+xqtaavJ+mbRq0fFza5843as2rmgrnNpqRNNhLWLyRRpYJyhuLCIUG6L7f/2vLmub6TeXJu7Q8uaZ9qrQ8r/O4dJP1HRhvcRKFzn3czwaR5+FxbWBVrWYdmn8FSsEPoS1fsrpR9f2u4DHEpGKpAmMf8UGH1/kZxUpvGCuU6ihT7oJXiuemb8393BSFQKUOpPDTh1otVg2C7FoU0U0o4/6nB4L8VzKH/aNCWVROY5T8maevCBq2CMamGeUNJ1B8hC4KbYx/yYkn/JunLhrEoMePoQ0FACaZK7CVDijPm6VVSU0HYJtyGsVh0pRgsjhNX1F7BkmSV7hsz75ueQWG6auBWIRW5D0Ex/L4kCq91eclpXkHgBwGhzgv7mPWIb0Ke892I56b6CFU0rUx4KFvPMrRKlGDORoNLYJ3/NrZ91gfrJFcgpoLmGvcEzItDEeaKlFdw6sIE3ZWCgOJFOisKGdVcORRjpJaCgNUDC+o+kraK6UjlZ74i6eCQpvv5yt9a1/wNJG0f+ETu3GM/5j9N9VuYUbu60DatIGDWu82cL2wga2CLbhwYqkm2GotAbQIqEVr51p8u6aUDmOi3hWJMpRsy64Jqo6yTHLlcsBaAy1DpqdkUwas2r0NtBWHmRqCE997BWpMyZ9YKwi6hzgwmc35nQxOsawSNoyRyc+5KCLyFZA03wr27+mjCd7AgoFj+KFhYE15NfrRpBQFNnh/H0Cl5qXI4JkbA5FW44QVcDATvoMyVyhDqE2AuPMqoeiUMnLnU1ASd/aFR3ELpvGx6nzodHBI1C0/VVBAwUXNDv1ko5b1pvMv+bqkg3CUUBfuznI50+A7Bt7gZsWx1UZH0+pL+WtK+HY4x91OwpB5QmVivWQWBYBN8ndxOhi6vkGQZQTz08S72j7kiWIebsoVgTsUq0ZdQjImiTBZCvYUc9xiBYWyEYxLSv+Ap+dtKna6lIODGhFuFW1+JWCgIuBN2k0QK3rrU1JJ+1nj3faFWTS2XA3vMbUOq+5BTohexJajzTZI+E7LerLFvVkHAekBK0liEEsD45VoVAoVI/7GgTj4p5CBjuuxaHh1u7BZ1PuA8yCkLDY749xc5DbrGIud7xCLQ/xflvLzhnRoKAulwWItIDy2VUgUBszlZEVbKael4Ut8neBJOE6yABDRaCWcB64l4JwsrpVW/UtphL3t2BSWhWQWBtKoxaYpEqpdGu6csuCE++xjDYlYE+WCVOaPjgcLJQPqaheB6SfXNQiOOWdKCtdFiDDltwLL5suAetCSVqaEgWO4zJQrCrSUdGW7JOZgP5R3M6v8eLEkWblf2VIi+aqePdoEfewEVgd9j+LFmFYSxsXixEbKQH2o4+WNrijxk8vxLc9UZN0xumFrZbLoS3Fn8gK9h8EHWAesh5YDENA/7HYGJYxd4HzjwIG+yEmsFgQP9vladC+yqOQfZTSW9bmQuhXWwzdJ6iR0r5cvgMO2C58NwGaxtigyHpxqmqjapIFj6gLuaeL5zVsiZ7vKbQ/uWZa0Mcq0x0X+tg0E+QRLxAgScWgi586yHWEE5wAIDC9xUBBchSoIFORSYWCoI8DjAJ2FRdGw2XzkWBFL1eK+v/P1aaw1XEzED3JpzL3vENQy9TksOfl+XhCvzQzkvL7zTnIJA6gr58JY/XIN5iGqClDYW9TqO76iGRvwQqXiYyS18usBAFHcX0dGYxLEgWKw75p91EJv6it+ZALncbIchLxdukCg/xCWUipWCQHzHnwfyo9I+zb+fqiBAA8whQWT+FAXysx0LCpOhZIzZ1bZuTmGm5DIFRiXSnILw7ZD7WwJan+/CpoV2aOln6nM8Od/mFkxGw345Ly+8Qy4xqWc1yagoykLGwGUN+ksTbIqQycQIwVeYHKe6EYIBdNXgi+JYIlYKAhky6xgRc/uYqiBYUpXn9rn2e7lWVYL6bmKksNceY077uGHuJoliWSXSlIIAdSs/XItbXAnoJe9iTvuopDuWNDKBd8mLx2RuIaR7LVYatGh31sZzDX3lMLrxo481q5IiC23y1IXgtUMKC65ZKAg/DBTVUCdbS4qCQGQ+h6dVYS3rsVi2RzwKfB6xgsWQAN8xnwMxY6V2AwypJamhzSgIpBvhc56KuY1Kj7EUrTGLaYzP4CqiCqeF1CCjYgMiY8CqCBjBmf8cWZuDQkuQgGHuthYCPClXy7/jwxg3fYPCYycGNwe4WFlT5r/LWHE3xLpeFvtsoSBswqHk7ykKQqwCmdofbqazokF7Rt5QUeRxsSFkDVgrT6Q8xrKAEuSJ0kwMj6XMfhO0ye+deKNNQtA1l1YETGplqcGSeeamzqz4ezMKwqeCNpWJ0+BeOzlwAljmAw9ukBs69GpJ0NZa/bCsbxRkK7BRWDB1Ms9wQDDvMUKGBrEHlkx5HA7ckLFgQBWcK9xuCS7jdnv13EZWvPdISa/PbHMqCgKxB2zslgJjJ0GhkHLxu8sV+FxYx9QgsfjdQr+N8hmT8gibJbE7lgRRKAa4fang+aBcUEJAK7jiPqWaqqUQzPnpxIyn2febUBDwxRFVPLVIXioTUvGxZXl/8LVZHO45vAKrsOeHjmJgRejDPMdWosTcym0ak7uVEBmNks1tkMPCQvg98rvk92klh4XMBrgSUmUqCgKprxa/B/A7LwS6Ya3LYexcNQfHhgwiWCZz+vrVYMGC3+GXkRONBYvMEivhNwGTIQGpVgJjLMHMKHkU87ISlI6c38TkFQQY+NhYWUhTE8h+SJ9jobYqbFocxGw0pYJpurR40qwPbERsSBbC/DLPsRXc4EggUM5qLAR0cTs63WIwC23gIyWehKp5VimYcA/AtpcqfSoIBJ2esyS2BLZLrCyU4Y5xMdw+xCjlHLqLeKEcUAOlFoMrgaVQP99JEi6xGMFNTGAxlkMCzmOF6plYlrhNWwhWNDhFYoOFU78J5hRQs6j2yrdxB1HTIlUmryCwUbJhWm2WqQDXfp5Ng8VUms5Su58128fvTBpfqV8bcyEsh6UZImj+TzMqnYzSMqvoGYMhBwpm9tfGPBzxDKZJrAY1U0E5/MCL9E0LngjqHmDKxh2SIl0qCCgDHHYE2CH46D8eCLzm+8y+BTUyrJ+fjMjU4PC0uHliJSJTiEOqtsSwTRKEioKKy441mSrUK7DIeuK77A/sE+wXNcVaSchRGietIKBNv3yi1oPZwkTLJ0qecbYs3zQyVePrx9VQUlqYdUepWgv5RMhnjk1XwlzPzcxiM8SvSookroXaQm0KCI9I4bUQsj1SiWK6UBAIFiOOhJsnueq5wWPLMILjhTGUMmVismc/qRHgumpu12GPckpgITTlqUrf7HtWCsLbQ+E49t0uBCUB9tXYIMx1fcJaR1GnFJm0goAGXFpBLQXMvp7F9MyP+bS+OjCA71KoBP9zaeATkfl/Hw7lnGHxQ4b+1yIwkflkXmNdC/T3PpIo4lQqsI1CtMKttivZNVQ9ZCMrFcoZp9Jo11QQiAvAVUQFWb5TQ2AExVVTKmS/8FvqUghYXYwlgDaY2zrrn0JNucK6emkoxpTbBu9hVYEzpWuXLjEJ7CmlwYsUqYMbIUUmqyAABKZGKnS1INz0rNLpxooXUdZEyJcKVgTqz6dGa7PJ4c6yMu8zn8xrrECGRCpkar8X2+fGhmJCxHfXctfwuyUyvUSoU8HtKya6ffadWgoCbI/sRQTW4RKsJRYKAumRfVT5nE/LxZ1A7AMuGKwGpQIdN+nGpYIrk5inmVuotL2U9y0spDkxVpNUEFhsTCQ3oFYEkzYbIibpVgXfO0VpLAR/b2pAE9YDbt4WLHrMI/OZ4qqAGY7xlwbkznzPVtkKqfOBgmXhaqBIUUpJ7xoKAqmhjAUTd02Bepy01tL4AyyupQpm7jiJIQIrDiULK9isHxYKAi4O6LxT6p/k4rDsvX3DxQM+n1xBQSDD6fyEBiapIBBAAu0qkastCZsEkbq1SFLGgCV+XXyxpUKwFzcGbn4xAtEJ38bEbyHHhUjtlLaIBk81qy+2f2oIGKwZlLhpTLgY2JBLFZ0hKAgQeb1t04AN/n5KyAYovf3nBLIZdP//m+ByZxn8x17AZZGiVSWSmwVQ8s3Fd0stpJwLKKop1XAnpyCQk4rGWLogLCe2q7Zg5dq/Y79xV2OL/c52hj5C0oLYGGJkmQ815r1lz2A9YB4xsaaIhYJA1g/f7lsIBqPSZonsI4l2uMXHiLUFgVTX0oyYmH7zjAURHHhb3txj+17zOXz3BHGXyFEhdgRCpD6FuBoUwRIheyaFnGxyCgImKisfcMlE9PXuGSFnvYR/u6++W30XPzYBOaWC75jN4dCIhki9KvWb8xniH4ggz6lOOCUFgWA7aKVLWO/IEMBNFBuHYK0gEDAbq5xELLG1j1goCJif+/Cvl4593fsWCgJxRXDpDMEyW9qHphUEantjQrEil6i5cGu2vUsgS6n5jSG3jR8WF4GFEDBF2uCm2IbSH+6sr8Q+sI5RTlIEdxrpc6QLlghsa2wiQxDGUuJzZQzbJlTqtFQQUEw4tK3Wxab5KFUQiDfZJmPdbepX33+3UBCIO0jx29ccMxbSEmlaQcBEhkmxdWGTv00l5rsxYIsfleyV1JzfZWNjg8cfvi4KutgMFz4MEQzzlkOJCndDy1ajVeuyDwWBA4WA0dyc/dTfmAWVPDU7WD9dKTSpY8x93kJByP32EN9rVkGw8M8McUJz+8QGNasUltvGmN/DRE1amVXQFSb/Za4GSm/fzig1jPli3nLEFYTlqPWhIOxYkYJ32SipR3L3nEUz9w5VbqfIxuoKwpYLA0sRxEtcemKk+PJjtQHHdHbVM5cPgVWzkqIlbU3pXcqJYiJvVbgVwUDI+igVqHuheYVIaSYQl0DmUmrWp73vBRNvbj9dQRiGgoD1hywMlNOuxBWE5UhjjieDoaTKYldz2OV3WJvQm8fI6BUE0svIXKAqnMuWCFDgB8IRy7ShMWHM2ri3YZrZQSGAcGaGxSTLwVwqtEfmAhTNueIKwjAUBIoPQVHdpbiCsBztB4dUZWIrXH6PQFMKArfklKperS2U1gMW8enDqlca3MO6mSdLISgQpdSC2hYyH3L2S8QVBFcQStbPFF0MUBS3XqNm2ZpoRkHghoiWWJulrOSHN4R3h+AG6hMHTIykzFkI5En8e4ukO1o0KAlXSCkxkSsIriCULEdXEErQG9e7zSgIV5xgWk6NpfbAwPJXo+0xtEkQIQWYLHgKKLoDNwJurVg/3jqMYF9kfkrFFQRXEErW0BQVhEeEMtoW9VlKsB3au80oCBSy8cDEzcvv55LgOW9ZHhvq25dS0VpjyLwwP6XiCoIrCCVraIoKwp8EBkQYLV1+jwCB1TtFAjLaIEXnPIicYUm/DoV/uEW3KlgPqKsAy+JQhPmgIBPzUyquILiCULKGpqggbCXpeaEyaQk2U3r3gpCuHXuxHq2C8JUGizGVLFQKfewtiYjnVoWARZSEOw8AAFwV5OiT3mghriC0qyDsF9Z1SbT+FBUEVoTzIGz5u4C8i3USSwE+SgXhCElPNiKnsdicx9AGpT5RDvYaQ2cr9pGSuIdUbD+2aTgViLBGo7cQlA0KLZUS5lj0ZUhtdE2U1EeaI4XCSK0sqVtBLMzDDdfjUNaAKwhbzkQTTIpne72FrN8fJC6k6j0n6+1pvARTIQfzbj0O57BQcTSHUnlVtzkkcLu9uXBcFLk6urCNIb3+voQYD4taDH0oCOBdWouBNrxY0/KVy37xkSEt6oK+/DKxwujoLAhU1SLqG/+SSzoCUAPDjdCyUO2Tqp99CemRNTacKVVz7GNuXEHwao7L1h3ubDIiKKTWmoxKQbhE4DjfobVZMhwvXNxUJjzQsM2xNXUdSRwGfQQsgjv4Mw/WYqEgUG4aetrYICbrMfTZXusKQkktkD7nbd23rxHW8j6FHdxT0nsL2xjj66NSEGCuI/8cgiSXfAT+NVAQ57cw/jdfJAkqauopdClQP4N/DcEycYokFOkSOVLS0xMCmUq+NaR3x6wgEID7DoO6IH2SqsFXQGn1dZVTc9YL67m0TYL7iO/5bE4HRvzOaBSE4yXd310LJkuN2gzcYuEGaFXw2X9AErfurgS8wb1WbQwUA34jpayRpF0Sp/LSroAZyHfGrCDA73GGAfX3+ZKu0NN8cNv/rqTzArGb1f5koSAACYclSnhL1P6jUBCIN8B6sHtPC3eKnyV6ngOAKN+WhRvBzToAgFK6T+zATImFgpukBSEUt65XSiIls2vhN08RK5SpWXGs2n0Ys4IANjDklbpfwfoykghm61KouIpiMC8E3OL7Zw2QhZUr1wxF6+6Z28Dce5Av4Yrpak0udnnrjudmFAoCxXZKfUgGa2NyTRCs9zRJ3BpaFaL24UUoNcuvww98wRm8awv57Jhp9zX6ELe44zrelHD78Js/N+T3w/xWy+oyD9PYFQQylPaXhHWsRH4i6QaSSInrQugvZemxICwTSq1T/4T1kMs6Sr0e+CIshEwolISu5eqSfhDcSPweupifwSsIaH/kdztdZp3liAUBtrGWBZMhVUFrCfh2aanh1nWs4WA4dDiwczfnlK5wSGC1uN/cS3cLhFIoCjVl7AoC2PxI0pUNQOLARnHG8lVTCBjGMswev0meLQlX8/cz4mNeEmKOsFRYCMRkHNAc2LXlcoHc6DNz7p/Z/LB31bRmDFpB4FaHVvy42jPQcPv4xA8NP7pWYXibpPtUsiKwmYEvOHclRFzzu7me4QdJCyXXvuZtnsOCjXyVtXDnQEtNP2rIFBSE90jawwgc0vtIKT+90MS/qju49rAM3CXBJXZaeIdA31SSsRONL5pUdMVNy8FdS6iZAGfLcwNPxfx3mBfORpQU4k9qyKAVBMrgMgF9pKPVAHuobWL+JpCnD1/zUDAhYJGbqrVQb6GPlFIyNDDNXtpwQJhVcV+wMVrKtQML4AMkPWRDw5iZsS7A52HtJ5+CggB8/I6tshGYczJ+vhj+Wcw7BcpgfXyjpOtmNvik4JZAIYp1P0FQ9pQlB21mFy58DdI+lGeyHD5e0tDCu1gosGo+X9JNN7QLpwrn5NeCMmfYjQsDM1Hcs8VqIS52YMdQiete2T3zF2MRgGYV6l+CnFoVfK7WWvg3g+YPuVfXctvgv6+RpfGwMBiCyt6ZOTCCrW4liZiJW4cAztimMO2ycWLNODn2pYjnpqIgEDPy0IjxpjxC+iztcoPP9b9vFw47lAIOeAsLF4czri9cDzHy6oANgZiWgrWFOi8c0iWKAvENNw/Bmak1YwjkJ9YCC9uZRoMbrILArZYbkEs3CHCIoWHX9jl2M5q8r1ilQ/F1CIegaH1BXldM3sLVwO1v0w0k92PcmiBVQjBzfmiDq4o8d/j+EfyquHWospkrbMrHSPq8pFNzG5l7byoKAkOq5ZfGtD/DmgJw/H/+u0puOOfyQBGExwZKZ0tJKWfPxfPdBZaLTf3+hKQTwkPMAeRK6y5eV5P04Dn35q6SSrItUNrfHn6XX9/U2Yi/D1JBwLWANuaFZyJm0PARCjnx42lVIOCyKL0MfhTP4TDkRtGnwIhIYbPa5GJUpaTuARvKKiF4jr5Yy6cl4V+mGFkJHe6UFIQXS3qmNdAL7REQSSoi/10lpAVSI6SmpCgI9AP3G7EuVgGL68ZGfNM6iwtB+FhBrLOocAOiQGMxKQmkHKSCYB2FXXNxTqltTFT4y1u1IsAd8Ixw6y6ZV/ADR/DsW24fqGZh2puy4HcnLoFDkVtczg16SgoCLhyw6DJ7pq/1xYH/qsSPP0rSayoczIndqP44pGm45GBG/UXG1wanIBC8cpSk22UMxl8pR6CvanTlPbdpAZMfmQclGj3WA3AcitAXUgdruRqGMk76wcb/elcQLpySK0p6VgeWhD7n/5FhvnP6gKsk1c+f852+38F9TKry6BWEq0h6auPliPteTATYPGiDqbjvPtb8PqQtRNLH5GUv6wcaN/iVBCrVGB8BgQQw4ROeqkBERZYFdL05MiULAuMngBy/PxaVKQq/U1wcsVkMixiQKUD8ypQFbLAi4obLsaoNyoKAGfRdaxi1pjyRQxrbQZKOztQ4hzSO3L4Q4UwUOP67VMHvRyDUEAV/MDEm2w6xc4V94nCHSAfrT65MTUEAB4JBuWWTbjslgSkU//6vCgcFBwMZGlMV9jHiEXJTggejIHCz+eBEN6+xLT4i8G/UEZXnULEhTTDVCkCwFjf1IcdwkFoGsYsF295Q5o4UN2I+yKookSkqCOAB7wAm5iNKwBnQu1gOSM3OPfTmh0LcETdsIv+hMp6KkLJNPBWBwyU4DUZBaMHcM6bFx2YLgY1VVP+Yxk5fKRYEIQ8mzBgBJyxgYygHe9Vw066d2RCDW+kzFKYiW2Sx0E9Ou1NVEMCCoEW4B2AuHLNwIybwznJfQkkg9giiNNxSg0sbAAAGpUlEQVRwY5eDJbGWIRUrKXIFDoNQELYJxA4lgWFjn9Qh9p9NpdSEN8RxxfYJylqY2mIEnGAtzPHzxbRv/QzKAb76VQVyrL9Xoz1uR6Tm5vqgF/s0ZQWBsXIQwooHN4ZVMa8a87qqTVwlzFGt3xgxG/cN1oQux2X5LTJXYFW0YsXtXUFgUmCxg1faZXgI1GLKHN5Il/do71CoaBMOm/4+1PESj0DcBL7qMQiHw+cC25x1f6euIMzjRUzC4zvgxyidIxRvTOQcfMRFdSFUfeRbXJBKK2N20V+sBHBBQCxoXXivdwUBqtVvdIGifyMLAfjAqRzWqlAHhM0CJXaVgE/NapC1sSeoEksJvmpMrUMV6GOJj4GKtoa0pCCAH+sats1rDfQg/FlwifTF5YCpnqw64nUsa5pYrV2Up7MCmyXuoxrSu4JAERD4p12GiQCaKQcIZUVbFdIWoU1mI10UTHnkm7OZjV2geeUWQrAW8SdDEWousBnCsFpTWlMQZlgSZ0NQMlkuQ3Dz8luCgRSl9Tk1JzyibRR/smP4bWBtw6rQt+BSg0YZS9pjQ6xBrT71qiBAUmHBoV4LHG/3Il/WSaFme8t4UMyKAkGLQorUPSaWEopC9Jjgr6awTh9mVlwJBHz+JJR/5qZUW1pVEGa4kmIO/TCHYR9CUN2sGNQBfXRgzTdRTqkPhOK8Swhi7qOL7DeUuSZrh2JwtaVXBQHfUh+bT21Qp9Y+6XsUFEFRaFXuH4K7dpgDgEqCHKbruOjHjBdBmmRyUGSJQ8O6yM4ybLAoUtyGWxKkR7mVA3Nwb11BADNiaUghRJjvLpQFFBP86KTm9W0xiFk3xwarIdYEgmRrC0rBrCAW+1CX0puCQCAIlKhTSLXqcsL6+tYXGqHqXYcv5nduETPhVoGZrwXBzIo1YSbk1VsImRRUvJsJ+egUXepDqAFTSvFOEaCpxFQx38w7gnuNNF6LGBWsxtx+Z5H2FPAqydXvY63wTawtFENDcDPCnWIRiwTZFyWbzw5tUzHVqnxzKlas56KLQU70Nuk2VH8bc4pVKtBjf55FC8NiLC/A2Me7rP/cFkgRw1cLDuBRwtw3ZozYOJYJ1emop0LwMYyUuAg4MKF6hatgMUUNX3MurfWY8Rtb35lPXGmkSS7KdiFwFPM7FmFuu8wrNMbM/6LAY8DfrFLxhoAlZQLYH5axqBLTw2Vi+xAITDwNZGoQlnEOLgrKE/EX6yqjDmHMUX3IURCIDiUydSypVVFANPDQhxopbrJuKg+RxL8HSAIPly0RQEG4pSQODRQEDgsCqlYpCI7f+BFgrlEKFxUErGvLFITxjzhtBCgIZN6gIHDmYS1BQeA3sUxBSGt94E+nKgiUnaTCGH5Nl3EhwG2ZQL3U0qrjGuX63kJVTAGcDzdsPZjSfPpYHAFHoCICqQrCxwL3dcUuedMVEcDs9QJJx1T8hjftCDgCjoAjMAEEUhQEDhYIHa40gXG3OgR8yASXPqpVAHzcjoAj4Ag4AnEIpCgIJ4ZAl7iW/amhIkBaH8F6swjeofbT++UIOAKOgCPQIwKxCgKHCaxP0Lm6jB8B5pMofhdHwBFwBBwBR2ApAjEKAlGuBLZRTtNlGggQiQu74NjLx05jNnwUjoAj4AgMEIFNCgJ/P1ISZBgu00Lg1ZKeO0foMa3R+WgcAUfAEXAEihDYpCDAd8Ah4jJNBJ4RFMAxMqFNc0Z8VI6AI+AIDASBdQoCXAfkzdcqRTkQCJrvxr6Sjm8eBQfAEXAEHAFHYAsE1ikITwllch2yaSNwmKSjnDVt2pPso3MEHAFHIBWBVQrCNpIODZkLqW368+NDYM+FojvjG4H32BFwBBwBR8AUgWUKAq4FrAcee2AK9aAbO1wS/6Za+njQ4HvnHAFHwBEYIgLLFIQ7SKJm9g2G2GHvUzUEnijpDZIuqPYFb9gRcAQcAUdgNAgsKgjbSnqxJALXXNpC4HRJu0v6TlvD9tE6Ao6AI+AILENgUUHYWdJHHKpmEaBOwwGSzm8WAR+4I+AIOAKOwIUIzCsIBCa+VtIejk3TCFD//JymEfDBOwKOgCPgCGyhIOwk6UuOSfMIvE/SXpJ+2zwSDoAj4Ag4Ag0jMLMgXFUSB8MtGsbCh/57BLaS9BsHxBFwBBwBR6BdBFAQtpZ0iqTbtwuDj3wBgS9Luomj4gg4Ao6AI9AuAigIlwlBaRdvFwYf+RIECFa9oyPjCDgCjoAj0CYCKAjkvaMkuDgC8wicKwnSLBdHwBFwBByBBhH4HcaZ0byvoehUAAAAAElFTkSuQmCC;" vertex="1" parent="1">
                    <mxGeometry x="339.78" y="38" width="84.45" height="19" as="geometry"/>
                </mxCell>
                <mxCell id="108" value="" style="shape=image;imageAspect=0;aspect=fixed;verticalLabelPosition=bottom;verticalAlign=top;image=data:image/png,iVBORw0KGgoAAAANSUhEUgAABigAAAE+CAYAAAAXs5gcAAAACXBIWXMAACxLAAAsSwGlPZapAAAAAXNSR0IArs4c6QAAAARnQU1BAACxjwv8YQUAADdySURBVHgB7d3tmePWlS7sx+fy/9EbwcARSI5goAgsR6DqCCRF0FAEkiLoUgTSRNB0BJYjaDgC+0Sgl/ug6WJVA6wCiwAB8L6va023Pjxi86sWsPbezx+S/B6ONfv6PsCtqPf1LgCv89d9/Rbepvte5VO76DHZrq/29VmW4bMs57EU9/tqcxvK++CHALzOl7md701g74/hqWZff0t3EQnchioAr7Okm2HX9PO+7uJ7tU8dPSbbVAaTTejza27rJlv5WVgFAGCE/xP6/BKNFQDAWG263ST/Dn30mGxNWTHfhD7tvt4EAICTDCj6lZUf72M1JADAWOWoK0cZ9dNjsiVVHOczpAxpv4xhLQDAswwohlXRcAMAnOPHff0U+lSRfcT6HYZtVehTdk60AQDgWQYUp92lO1MVAIBxvo28hSHlWBw9JmtWhpBV6FN2kP0aAABexIDieU26i0gAAMYpeRRt6NNEj8k6leHa16FPGUw0AQDgxQwoXqZsw68CAMAY5fx1odnD9JisjVDsYW2EYgMAjGZA8TICDQEAzlNCs78LffSYrEkV+SlD2gjFBgA4iwHFy1XRkAMAnOM+QrOHVPv6JbBshmmnlSFsGwAARjOgGEegIQDAeYRmD6ujx2TZHEc2TCg2AMArGFCM10QoHADAOYRmD2uix2SZyvBMoHu/+8jkAAB4FQOK8/wYK4gAAMYq57M7p32YHpOluYsb8EPayNcBAHg1A4rzOIMVAOA8bdzUG6LHZEmqff0Q+rQxbAUAuAgDivNVEWgIAHCO+3TntvOpKnpMrq+KYdkpb+K4OgCAizCgeJ06VhUBAJyjidDsIXX0mFxXef9VoU8Zru4CAMBFGFC83rcRaAgAcA6h2cP0mFyLUOxhP0UmBwDARRlQXEYJNPwiAACMITT7ND0mc/smbsAPaeO5AQC4OAOKyyhns/4SZ7QCAIzVpjvPnU8deswqML0qbsAPaWOYCgAwCQOKy6ki0BAA4By/Rmj2kGpf7wLTqiIU+xTH0QEATMSA4rLqCDQEADhHk25Qwafq6DGZVhmCVaFPGZ7+FgAAJmFAcXnffiwAAMYpRz21oY8ek6mUUOw69BGKDQAwMQOKaZQmX6AhAMA4QrNP02NyaUKxh7UxFAQAmJwBxTQEGgIAnKdNd947n9JjcknVvn4Mfdp0w1IAACZmQDGdKkKzAQDOsYvQ7CFV9Ji8XpUuFJt+QrEBAGZiQDGtsgVfoCEAwHjNvn4OffSYvFYJpK9CH6HYAAAzMqCYnkBDAIDzlB6qDX30mJyrDLc+D32EYgMAzMyAYh7lIkCgIQDAOEKzT9NjMlYJxTbY6vePeG4AAGZnQDEfgYYAAOO1EZp9ih6TlyrDLKHY/dp9fRUAAGZnQDGfKt0F5GcBAGCM3b6+C32q6DF5XhXh6qcIxQYAuBIDinmVVUtvAwDAWGXlt9DsfnpMniMUe1gZfgrFBgC4EgOK+Qk0BAA4T+mh3Ejsp8dkiFDsYd/HsVcAAFdlQHEd5SKhDgAAY5Sw7L9GaPYQPSZPlZ01Blf9Sih2EwAArsqA4nrexTZrAICx2gjNPkVoNgfl6K8m9GkjFBsAYBEMKK6nikBDAIBz7CI0e0jpLfWYVBGKfcqXEYoNALAIBhTXVVY1/RAAAMYq58b/FProMW9bGU69j500Q8pwsw0AAItgQHF9d3EuLADAOZoIzR5yFz3mrSq5E1XoIxQbAGBhDCiWQaAhAMB4h9DsNvTRY94eodjDhGIDACyQAcVyCDQEABivjdDsU/SYt6OOG/BD2gjFBgBYJAOK5TicFSvQEABgnHLMk9DsfnrM21Dt613oU3ZaCcUGAFgoA4plqSLQEADgHEKzh1XRY26ZUOzTSu5EGwAAFsmAYnnu0p0dCwDAOOXsfaHZ/e6ix9yqMpyrQh+h2AAAC2dAsUxNBBoCAJxDaPawJs7h35oydPo69NlFJgcAwOIZUCyXQEMAgPHaCM0+peQUVGELyrCpCX3afb0JAACLZ0CxXAINAQDOIzR7mB5zG6rIFRkiFBsAYEUMKJatSrfKDQCAcYRmD6uix1wzodinleFkGwAAVsGAYvnK1m2BhgAA45XQ7F3oo8dcL8d0DSuh2PcBAGA1DCjWoYnwOwCAc5Rz6NvQp4kec23KUEnQeb9fI5MDAGB1DCjWoxxTUAUAgDHadKHZ/w599JjrIRR7WBu5MwAAq2RAsR4CDQEAzlNCs78PffSY61BFbsgQodgAACv2x7Am1b5+SdeAAzyn3JCzYhjm4bO2fIedAt+Ep6roMZesiiHSKY5xW47ys3AX1qrONrkmWh+vF9yg39Xq6m2AS6mzrs//mKoCwFPvs67vcj0mZXi0lvfQ3NUEuIQq6/rsj6k6ACyaI57WqYlAQwCAc5Q8ijb0aaLHXJq3EYo9RCg2AMAGGFCsVzmm4IsAADBGOTZAaPYwPeZy3MUN+CFtuqOdAABYOQOK9Spn0P4SZ9ECAIxVzqP+LvTRYy5Dta8fQp9DKLYhIwDABhhQrFuV7gISAIBx7vf1fehTRY95TVWEYp8iFBsAYEMMKNavjtVVAADnaPa1C33q6DGv5V26IQWfKkPFXwMAwGYYUGzDtx8LAIBxhGYP02POr4Ri16HPfWRyAABsjgHFdpSLGYGGAADjOM/+ND3mfL6JG/BD2siNAQDYJAOK7TgEGlYBAGCMNm5+DtFjzqOK4cSQNoaIAACbZUCxLVW6M2sBABjnPkKzh1TRY06pilDsU8rwsA0AAJtkQLE9dQQaAgCco4kA3iF19JhTKe+5KvQRig0AsHEGFNsk0BAA4DxvYrX2ED3m5ZWMj89Dn5/i2CsAgM0zoNiussJNoCEAwDhCs0/TY16OUOxhbTw3AAA3wYBi2wQaAgCM16bbSUE/PebrlSHPj6FPG0NCAICbYUCxbVW6C0gAAMYp594Lze5XRY/5GlU8f6c4Zg0A4IYYUGxfWZ0l0BAAYLxmXz+HPnrM8wnFHlaGgrsAAHAzDChug0BDAIDzlB6qDX30mOOVoY5Q7H5CsQEAbtCWBxRltVsbDsrFUB0AAMYQmn2aHvPlSii2gU6/NoYTAAA3acsDinZff42LyWPvYjs5AMBYbbq+kn56zOcJxR7WxhAQAOBmbf2Ip98i3PBYlS6Q77MAADDGLvrKIVX0mKdUEYp9Shn+tQEA4CbdQgZFWan0UzgQaAgAcJ4mQrOH6DGHvY8dJkPK0O+3AABws24lJLuc9boLB3dx/i0AwDlKD+WGar+76DGfKkObKvQRig0AwM0MKIo3sXX4mEBDAIDxyjn5cs6G6TEfvI2BzZA2nhsAAHJbA4o2LiafKmfhVgEAYIw2QrNP0WN2Q5om9GnThWIDAMBNDSiKsh3/u3BQggwFGgIAjLeLvnLIrfeY1b7ehSFCsQEA+I9bG1AU9xGafUygIQDAeX6M0Owht9pjlqGMUOxhZagnwwUAgP+4xQFFITT7sbt0Z+QCADCO0Oxhd7m9HrP8eavQpywS+zEAAIQHtzqgKGwtfqyJQEMAgLEOodlt6NPkdnpModjD/hHPDQAAPW55QHG4mBSa/UCgIQDAeO2+3oQht9BjfhWh2EPadM8PAAB84pYHFIXQ7McOZ+YKzQYAGGcXfeWQrfeYVWS6nWKHEQAAg259QFHc7+v7cFDt610AABirnK//U+hTZZs9plDs04RiAwBwkgFFp4nQ7GNlC7bQbACA8Zq4ITtkiz1mGUpVoU9ZBCYUGwCAkwwoHth6/FgTZ8UCAIwlNPu0JtvpMcuw5evQp4RiNwEAgGcYUDwoF5NfRmj2sbINvwoAAGO06YYU9NtCjykUe1gbC50AAHghA4rH2gg3PCY0GwDgPOWYJ31lv7X3mFVktp1SFn21AQCAFzCg+NR9hGYfq/b1SwAAGEto9rAq6+wxLeA5rQzl2gAAwAsZUPRr9vVrOKgjNBsA4BzfRmj2kDrr6zEdgTpMKDYAAKMZUAx7E6t/jjURAggAcA6h2cOarKfHLMMU2Qr9dpHJAQDAGQwohgnN/lRZEVUFAIAx2nRDCn1lvzX0mHdxA35Im25xFwAAjGZAcVobzfYxZ+4CAJynHPMk56zf0nvMal8/hD6HRV1tAADgDAYUzytZFC4mH1QRmg0AcA6h2cOqLLPHrGKBzinlOqkNAACcyYDiZZp9/RwO6lhFBgBwjhKavQt96iyvxyyPpwp9hGIDAPBqBhQvVy4m23BQng+h2QAA45UjRNvQZ0k9plDsYbvI5AAA4AIMKF5OaPanyoqpLwIAwBhthGafsoQe85u4AT+kjZw+AAAuxIBinDbdxSSdchZvOSu4CgAAY5TQ7O9Cn2v3mFUMJ4YIxQYA4KIMKMbbRWj2sWpf7wIAwFj3EZo9pMp1eswqQrFPKUO1NgAAcCEGFOdpIjT7WB2h2QAA5xCaPazO/D1mGYpUoU9ZpHUfAAC4IAOK85WLyd/CwbcfCwCAccoRom3oM2ePWUKx69Dn1zj2CgCACRhQnK+cvyrc8LFyUSc0GwBgnMO5/vrKfnP0mEKxh7WRlwIAwEQMKF6njdDsY0KzAQDO08ZN4CFT95jVvn4MfYRiAwAwKQOK19vFxeSxKt0FJAAA49ynO+efT1WZpses0oVi0+9NDCcAAJiQAcVllBVXQrMflC34QrMBAMZrIjR7yBQ9ZslWqEKfMiz7NQAAMCEDissRmv2Y0GwAgPMIzR52yR6zZFt8HvoIxQYACHMwoLicQ2h2Gw7KCrc6AACMITT7tNJjvjY0Wyj2sDbd0U4AADA5A4rLaqOZf+pdbJsHABirjb7ylNeEZpfhhlDsfoZjAADMyoDi8nYRmn2sSncB+VkAABijHLMjNLtflfN6zCrThG1vhVBsAABmZUAxjbIi66dwUFapvQ0AAGM1EVQ85JweUyj2MKHYAADMzoBiOkKzHxOaDQBwHqvah43pMUt2hVDsfveRyQEAwBUYUExLaPZjQrMBAMaTC3DaS3rMstPCYpl+bRxRCwDAlRhQTKtNN6TgwWsCDQEAblUbfeUpp3rMchRUE/q0MfwCAOCKDCimV455siLpQQkyFJoNADDeLkKzhwz1mFWEYp9SrlPaAADAlRhQzENo9mNlFdsPAQBgrGZfP4c+fT3m+9i9O0QoNgAAV2dAMR+h2Y/dpTsLGACAcUpf2YY+d3noMcuwogp9yuKpJgAAcGUGFPMSmv1YE6HZAABjCc0+rUl3rJNQ7H5tDCcAAFgIA4p5temGFC4mHwjNBgAYr43Q7FO+Cn3aGG4BALAgBhTzK8c8CTd8UIIM30doNgDAWLt0IcfwUm9iRzcAAAtiQHEdQrMfqyI0GwDgHKWvFJrNS5RFUrsAAMCCGFBcTzkTdxcO7iI0GwDgHKWv/C0wTCg2AACLZEBxXUKzH2vivGAAgLFKnoCcM4a0ERgOAMBCGVBcl4vJT72L0GwAgLHaCM3mU226UGwAAFgkA4rrK9vxhRs+EJoNAHCeXfSVPGbHNgAAi2ZAsQz3EZp9rEq3kwIAgHFKaLa+kqKEYssmAQBg0QwolkNo9mMli0JoNgDAeE3cmL51QrEBAFgFA4plsQX7sWZfXwcAgDEOOWdtuEX/iFBsAABWwoBiWcrF5JcRmn2sHFNQBQCAMdp9vQm3pk23ExkAAFbBgGJ52gg3PCY0GwDgPLvoK2+NnTMAAKyKAcUy3acLtaNT7euXAAAwltDs21GGUbJHAABYFQOK5WoiNPtYva8fAgDAWCWPwI3rbStDqB8DAAArY0CxbLZoP1YuroVmAwCMp6/cLqHYAACslgHFsgnN/lRZGfZFAAAYo003pGBb2gjFBgBgxQwolq/d15twUMKyf4nQbACAscoxT0Kzt6UsZmoDAAAr9cewBr+mC81+G4oq3ZDiywCnvAusWxnQtwEuqexGrfb1TVi7MmxqAwAAK2ZAsR7Nvj6PLdwHdbrQbKsAYVgdAPhUySsofWUd1qosXhKKDQDA6jniaV2sJH3s2wgEBAA4h75yvUoodhMAANgAA4p1EZr9qXLsldBsAIBx2nSh2frKdWljRzUAABtiQLE+bbqLSTqH0OwqAACMUUKzvw9rIhQbAIBNMaBYp11cTB6r0g0pAAAYp+QY/BTWQCg2AACbY0CxXs2+fg4H5ZinHwIAwFgl02sXlkwoNgAAm2RAsW7lYrINB0KzAQDOU44QbcMS7SIUGwCAjTKgWDeh2Z8quyiEZgMAjFP6SaHZy9Pu600AAGCjDCjWr43Q7KeEZgMAjFdCs78LS3FYjNQGAAA2yoBiG3ZxMXmsSjek+CwAAIxxny7vgOsrr0MbAADYMAOK7SiheUKzH5Rjnt4GAICxmgjNvjah2AAA3AQDim0pAdG/hQOh2QAA5xGafT2/Rig2AAA3woBiW4QbfqqEZtcBAGCMQ/6BvnJebRzdCgDADTGg2J42QrOfeheh2QAAY7Vxs3xOQrEBALg5BhTbtIuLyWNVhGYDAJzjPkKz51L69zYAAHBDDCi2q4Tq/RQOSmj2DwEAYKwmXS4C0ylDoPsAAMCNMaDYtiZCs4/dRWg2AMA53sTq/qkIxQYA4GYZUGzbITS7DQdCswEAxhOaPY023fAHAABukgHF9rVx0fNUyaOoAgDAGG30lZdk6AMAwM0zoLgNuwjNPlbCst9HaDYAwFjlOCKh2Zfh2CwAAG6eAcXtEJr9WBWh2QAA52giNPu1ypDHcwgAwM0zoLgtJSBaaPaDu329DQAAY1n9fz6h2AAA8JEBxe0Rmv1YE6HZAABjyU84Txs5HgAA8B8GFLenTTek4IHQbACA8droK8doY6gDAACPGFDcpnLMk9DsB0KzAQDOs4vQ7Jcq/XcbAADgPwwobpfQ7Meqfb0LAABjNfv6OZwiFBsAAHoYUNy2Epq9CwdfRWg2AMA5Sl/5WxjyewAAgE8YUFBC+tpw0Ozr6wAAMEbJVfhr5CsMadIthgEAAI4YUNDGxeRT5firKgAAjNFGaPYp5TjRKgAAwH8YUFCU7fjCDR8IzQYAOM8uXRg0n9JjAgDAEwYUHAjNfqza1y8BAGCs0lcKze5XRY8JAAD/YUDBMaHZj9URmg0AcA6h2cPq6DEBAOD/MaDgqXJucBsOmgjNBgAY6xCa3YY+TfSYAABgQMEnDheTQrMflGMKvggAAGO0+3oThpQeswoAANwwAwr6lO34wg0flCDDXyLQEABgrF30lUOEZgMAcPMMKBhyv6/vw0EVgYYAAOcoOwV+Cn2q6DEBALhhBhSc0kRo9rF6Xz8EAICxmgjNHlJHjwkAwI0yoOA5wg0f+/ZjAQDwckKzTyv9pdBsAABujgEFzykXk19GaPaxtxGaDQAwVptuSEG/chSWHhMAgJtiQMFLtBFueOwQml0FAIAxyjFP+sp+ekwAAG6OAQUvdR+h2ceqfb0LAABjCc0eVkWPCQDADTGgYIxmX7+GgzoCDQEAzlEyF4Rm96ujxwQA4EYYUDDWmwg3PCY0GwDgPEKzh+kxAQC4CQYUjCU0+1NlhZtAQwCAcdp0Qwp9Zb+30WMCALBxBhSco023k4IHAg0BAMYrxzzJOesnNBsAgM0zoOBcJYvCxeSDKt0FJAAA4wjNHlZFjwkAwIYZUPAazb5+DgdlC75AQwCA8Urewi700WMCALBZfwy8TrmY/J/Yen5Qno9/plsJCADAy5UjRN9HX9lHjwkAsH1VusUp1cf6r6PfF599rD5tz6///PhrqXK06iKz3wwoeK1DaPbfM/wBuTVlhVv50O8CAMBLtelCs8uQQl/5KT0mALAEVaZdUNLm4Sb7llX7qtMNJA6Lv1/TA1dPfu1T7uOWfvIf6XrKXRYytPh9o9WEOdVZ1/tj6voQq//Wos663ltK3VJVAab0RZbpLuv6rpqzPsR3I3B5Vdb1XTim6gCXdp9pP7dNtqkMH+p0O2I/ZDnfk+/TPedXvTZYypPhzbx+Tdb1Hpm67CpZhzrrel+NqSoA0K/a17/29TbLVC7c1vLzVo8JrF2VdX0Pjqk6wKXdZ9rPbZNtqff1Ll3vvaTvx776kK4PrzIjIdlcUhOh2ccEGgIAS1Rubr//+Guzr6+zPEKzh5Ue820AAFiq0meXfq0MJUrffZd1LDCp9vVNukFFedxfZQYGFFxauZj8LRzcpXtOAACW4l0er4qafZXUC5U8ijb0+TZ6TACApanT7TApg4km6971Wu/rl3TDirtMyICCSyvBKn/NQlPhr6TsoqgDAHB9ZSXX05VQxzsqlkRfeZoeEwBgGap0N/NLT73E3cmvUaVb4DTZoMKAgim06S4meVC+pKoAAFzPXYbP9K3S9StLU3bmfheG6DEBAK6nLPApi0bKzftZjkO6oirdoOJ9Ltx/GlAwlV1cTB4rX1i/RKAhAHAdVZ7PxqqzzPys+319H/roMQEArqMMJMpg4taO3azT/bkvlolmQMGUynnGQrMfCM0GAK6hysuPcCoXWEvclt5EaPYQPSYAwHwOC0RufZFIk25QUeWVDCiYmtDsx+5ywQkjAMALlJvX1Yh/vywy+SLLIzR72F30mAAAUys98t+z/eOcXqpK93zc5RUMKJjaIdywDQdNBBoCAPPoC8V+zlKPDSp95ZcRmj2kiR4TAGAq36S7GV+FY+WaoWRTnL1YxoCCObT7ehOOCTQEAKZWLqKanKfKMkOz28g5O0WPCQBweeXm+4/hlCZnHjtqQMFcdnExeaxMF196FjQAwFhVzh9OHNQRmr02ekwAgMsqw4kmvEQ56v9dRjKgYE5l0vhTOKhyxocWAOAZVS53k/rbj7U0zb5+DX2qCM0GALgEw4nx7jLyfqcBBXNrIjT7WDkTWqAhAHBJ5YKgyuWUXmWJodnlCNE29LmLHhMA4DUMJ853lxG9qAEFcxOa/akm48MrAQD6lAuBOpd1CM2usixCs09roscEADjHa7Lc6DR54U5sAwquoU03pODBpVc6AgC3Z8oLqSrLPJqyTbeTgn56TACAccrOYYHYl1GOHX12J7YBBddSjnkSmv1AoCEA8BpVpr+QqrPMbIOSRSE0u58eEwDg5ap0O4e5nPJ8nuxFDSi4JqHZj1XxJQgAjFeluwk9hyWHZv8c+lRZ5u4XAIClaWL36aVVeSaP4o+B6yoXuP+TZQYvXkOd7kNrFSAA8FJlB0GV+ZRdFLt0O2KX5NBXVuGpkkWhxwQAGHa3r6+zHCVnrU3Xc//z418f/t5TVbpdCqU+//jXS7rXWvr0/013DfEJAwqWoORRlFV/VSiadF82VgECAM8pw4LPM7+y67MEVLdZjkNo9t/jSKM+TfSYAAB9Su/4Nte3S3cj/7cM3MwfqU43qPjLx99fU3l+d0P/8PeNVhPWpHxY/pV1vcemrPJcVGEOddb13hhTVQDYshKKfc2fM3/PMtVZxs/hJZYeE+hTZV3fZWOqDnBp95n2c9tkfm9zve+p0p81mX6BTfXxv/Mhye9Xqru+ByaDgqUok0Fbzh8INAQATimLO6YOxX7JY1hiaPYu+sohekwAgMeqDNw4n1jZ/Vt61j+lGxz8O9NqP/53yn/vTa6zE/qbvr9pQMGSCM1+rIrQbADgU1WW0yMIzV6fKnpMAICDktVVZV7l/udcg4k+9+mORp37PmxZ4FQ//ZsGFCxNucDdhYM6y1yZCABcz9yh2M8pvUqd5Sl95dKCvJeizjLOWQYAuLZvMp8yjChZvN/mOoOJY226xzF3rtwnPagBBUt0rW1GS1W+LL4OAMD1QrGf8y7LyzY4XABe++JvqZroMQGA2zbn7ol2X39Ot9hoSXaZd0hR58lxowYULFEbF5NPleOvvggAcMvKaqMlHqdUVOmODVpatkGbrq+knx4TALhlX2UebebfqTBGm3kf393xXxhQsFRlO/534aBc7JeL/ioAwC0qN5GbLFt5jEs8NmgXfeWQQ48pNBsAuEV/yTzWcFpMm25IMceC8UfPuwEFS3YfodnHqnTHJwAAt6XKekKNlxqaXXYK6Cv7VRGaDQDcnjrzLNL4PuvJ223TDVOmVufouTegYOmEZj9WR2g2ANyS0ri/z7p2US41NLuJ0OwhdfSYAMBtqTO9Nt1CmTUpGRm7TO8/x4waULAG5dzgNhwsdWUiAHB55cikKuuzxKMpD6HZbeijxwQAbsn/ZHpl98QaM3bn2EVhQMGqlA/yXGegrUW5WSHQEAC2bcmh2M9ZarZBm3kuuNZKjwkA3Io5ep5d1qnd1/9mWp8ffmNAwVq0EW54TGg2AGxbneWHYj+nXPQt8digXfSVQ/SYAMAt+CzTL6TZZd07d6c+msoOClbpPt3WKDpVBBoCwBZV+3qXbbhLtyp/aYRmD6uynfcfAECfKtP7W9Ztl2lPs6kOvzGgYG2aCM0+ttSViQDAedYYiv2cJssMzS7HZwnN7ldHjwkAbNccx5Buoc+ccsjyn9fAgII1Em74mEBDANiOsrK/yvYs9dggfeUwPSYAsFVVpreFLN1dplWV/2NAwRoJzf5UWeFWBwBYs3IU0tfZpsPOkCWGZv81DCk9ptBsAIDxtnDfss0M/hhYp3ZfbyKD4Vg5K7gMbtoAAGvzVdYfiv2cKt0N7zdZlrL9voRmO9KoX+m39ZgAAOMsbWHOOX7d158ynbb8HwMK1qx8SEpo9hKDF6+hysMFpN0lALAeVW7n5vhduguR77Msh6O1vglPVdFjAgCMtYUBRdFmYo54Yu2adIMKOmULvoENAKzHFkOxn9Ok2zGyNCVvYRf66DEBAMapwosYULAF5ZiANhwINASA9ShHNFa5PUv9c+srh+kxAQBe7i/hRQwo2AKh2Z8Smg0Ay1dWpC9xJ8Eclh6ara/sp8cEALagzfTKDtStHPM0KQMKtqJNdzHJg3JWcBUAYIluIRT7OVW6nRRLU0Kzl5aRsSS3uusHANiONtMrwwm7T1/AgIIt2cXF5LHyRfhLTGsBYGmqLPPG/DWUQc0Ssw1KaPZPoU8VPSYAsG5z7Zb9JhZ2PMuAgq1p9vVzOCjbyX4IALAUVZZ5tNE1NRGavTZ6TABgzcqAos30Ss9vYdIzDCjYonIx2YaDuyxzZSIA3KJyU7cKTy312KByhGgb+tzFsQUAwHr9I/Oo477cSQYUbJHQ7E81EWgIANd2y6HYz/l3ltm7lcckNHuY0GwAYK12mU8TQ4pBBhRsVRuh2U8JzQaA67mLUOwhbZa9uKSEZn8XhugxAYA12mVeTQwpehlQsGW7uJg8Vs69c+Y1AMyvivP6Tyn9Wptlu4/Q7CF6TABgjcoilLkXyDT7+hCLOx4xoGDrfozQ7GNV3CABgDlVcfP2lO/39WvWQWj2sCp6TABgfa6xAKVKN6RYagbb7AwouAXlYvK3cHAXW8oAYC4uPIbdZ33HXgnNHnYXPSYAsC7XXChzl24hU+mfqtwwAwpugXDDTzUR0gkAUysXG3Xo02adR3GWfnLJeRnX1sR7HgBYj7KgeZfrqdL1T3/PDS9sMqDgVrQRmv2UFZ0AMJ1vIhR7SJt13+RvI+fsFKHZAMCafJ/rK8fB3qU7+qkMK8ppMFVuhAEFt2QXF5PHBBoCwDSqGE6c8ibrPybpPsu4mF0iPSYAsCa7LCtn7It02V6HYUXJ162zYQYU3Jryob5GAM5SVel2UgAAl1HFzdlTyk39XbahidDsIVX0mADAepQFNEvc3VuGFWVndrm++Fe6narffvz7m2FAwS1qIjT7WMmiEGgIAJdRgvaq0KcsEmmyLUKzh+kxAYC1aLP83bFlAVTpr8ruirKzYjMDCwMKbtEhNLsNB82+vg4A8BrlZuznoU+bbR57JTT7tCbdhTQAwNKVU1d2WY++gUXZaVEGFnVWxICCW9Wm277Fg/JFXAUAOIdQ7GFttn0Tv42+8pRy1FMVAIDlW/OC5jKwqNMNLA5HQq1iYGFAwS3bRWj2MYGGAHCesqX6xzDkFnaulqO9hGb302MCAGtx2B3bZv2eDix+//hrk4UNLAwouHVCsx+r0p1fBwC8TBU/O08pN+1vJfurSTeo4FNVfE4AgHVo0y2w2eLu3zrdsbRlUPEh3U7XckzUVReSGFBAt9VJaPaDOt10FQB4nlDsYVsMxX5OOeqpDX3qCM0GANah3Cf8c7bd11X7uku3iOQQuH2XKzCggI7Q7MfK0EZoNgCcVgb6QrH7ten6iVsjNPu0JnpMAGAd2mznuKeXKDspyo6Kw86KLzITAwrotOmGFDwox1/N9mUEACtTQrFv8Qb8S7TpLuZuVRt95Smlx6wCALB8bbqdFD/ndlTpdlL8/WPdZWIGFPCgbN8Smv2gnD/3SwQaAsBTQrFPszM12UVo9hCh2QDAmpSdsXe5zXuG5brnsKviLhMtMjGggMeEZj9WRaAhAByr4mfjKeXCTbZXp8ltrbYbo4rPEQCwLuWe4Z9ymwtxqnSDirLI5OKZYgYU8KlyXMMuHNQRmg0AB6Upr0KfssjDzpLHSl/Zhj519JgAwLq06YYUZVHOLWaOVekW4Rx2VFyEAQX0exMXk8e+jXO2AaDcTK1Cn39Er9BHaPZp5T0jNBsAWJuyKOfWsimOVXk4+qnKKxlQQL823fnJLiYflC1cQrMBuFXl56Ab8P3afX0VhrQRmn1KucDXYwIAa9Om20VQdlTc8qCiDCledeyTAQUMK+cnCzd8cAjNrgIAt6VOt5WZfmWHQBtO2eU2gxVfQo8JAKxZG4OKJq/YTWFAAacJzX6sikBDAG5LlW77Mv3KTfc2vETpK4Vm96vicwYArFubx4OKNrelSpfXN3pntQEFPE9o9mNlC75AQwBuQVnZLRR7WNlpKhR7nNJX/hb61NFjAgDr1+ZhUFEybne5HVW6hc2jjnwyoICXKecGt+FAaDYAt6A01lXoU0KxmzBWyTfTVw7TYwIAW3Kf7jjUMqwoO49vZaFKkxFDCgMKeJnDxaTQ7AdlhZtAQwC2Sij2sDZCsV+jTbeajn7ls6fHBAC2pE238/jPuZ2dFU1eeISnAQW8XJlyCjd8TKAhAFtUbr43oU9ZrCEU+/V20VcOEZoNAGxZm4edFX/4+GvJv91le+7ygp0UBhQwzn2EZh+r0l1AfhYA2IYqzsE/peROtOESyio6fWW/Kl2PCQCwdbt0O7fLoOL/y/YGFk2eGVIYUMB4QrMfK1vwR4XfAMBCCcU+TSj25TURmj2k9JiGhQDALSm7lXd5PLAoR86XgcWae8ZmX/XQPzSggPMIN3xMoCEAW1Buvlehzy6OvZqC0OzT9JgAwC0rveKv6fqhkl+x5oHF4BGeBhRwnsP5y0KzH5QVbnUAYJ3KbsCvQ582Qp2n1Ka70KSfHhMAoDM0sPg5yx9YlN3qvaHZBhRwvjbCDZ8qXzRVAGBdhGIPE4o9j3JBqa8cpscEAPjUYWBxl25g8ad0C4t+zTLV6R7rIwYU8Dr36c5jplNFaDYA61JlYCUP/0+5ad6GOQjNHlZFjwkA8Jw23b3KsqviD3nYXbEkZXfso57OgAJer8lyJ5PXINAQgLU4hGK76dmvLMK4D3Mq2/WFZvcrPebbAADwUofdFeUoqLKzYpfrK9dejzLGDCjgMsqHvA0HdxFoCMDyOTZmWLmYacI1CM0eJjQbAGC8chTUfbqjW8sxUNfeVfFNjhaJGVDAZQjN/pRAQwCWrKzE/ir0aSMP4ZradEMKfWU/PSYAwPnadAuLy6DiWsfWP9pFYUABl9Om20nBg3JWcBUAWJa72B0wRCj2MpRjnuScDdNjAgC8TpvumuhaOyq+OfzGgAIuqxyH4GLygbO9AViaKrKSTnFs5XIIzR5Wekuh2QAAr9emW8BVrgPm3MFb+ri6/OaPAS6t2dfncWzEQZXuRpDdJfP7y77+b4A5lAG141iWr4rB+SllkcWvYUnK1vfSV9bhqRKarccEALiM+3Qh2uV6qco8yr3TnQEFTKNcKJWLpioUd+kmsnaXzOvHAHNp0zVzLFu5mVmFPkKxl6v0lXNeKK7JXfSYAACX0qY77nWu3rMsrP3WEU8wDaHZn2pi9R8A1yMUe1gbq9CXrI3Q7FOa6DEBAC6lzXz3NKt9fWZAAdNp011M8kCgIQDXUALYmtDHoop1KKHZ34UhekwAgMtpM98CptqAAqa1iy3nx4RmAzC3KoYTpwjFXo/7CM0eoscEALiscgTsLtP7woACptfs6+dwUO3rXQBgelXctDxFKPb6lNDsXehTpcuZAQDgMuZYdP3fBhQwj3Ix+Vs4KGeAvw0ATKsMxKvQ5z52lqxVOUK0DX3uoscEALiUXaY/CtYOCphJ+TALN3ysibBSAKZTblLWoU8beQZrpq88rYkeEwDgUv430xKSDTNqIzT7KStbAZiCUOxhbYRib4HQ7NP0mAAAl9FmWgYUMLNdXEweE2gIwKVV+/oxDCl9SBu24D7znAu8RnpMAOCpf+3r9wlrq9pMy4ACrqDcNBGa/aDa1y8BgNer0t2UpJ9Q7O1pIjR7SJVuJwUAcFlrXQAw9Q7iKpzFgAKuQ2j2Y3UEGgLweuXmexX6/BTHXm2V0OxhJYtCjwkAl/VfmVabaRhQLNQfA1zDIdywrPKsQtGk+yFkdwkA5/hhX5+HPm0MJ7as9JUlV+TvcaRRnyZ6TACm81mm/fn77ywvO2yt/cY/9/VFplP+f++yPZO/3gYUcD3tvt7EURTHyvFX/4jdJQCMU0Kxvw192gjFvgVtunwRRxr1Kz3m32KnCQCXV3brTfnzd5eul1uSKtNqM42p++G/ZJtZeFWm9W9HPMF17SI0+1iZyv4Sq/8AeLmyUkko9rCyGKINt+A+QrOHCM0GYK2qLMvUO0aKqQYJUy+GLdclW+w1pt6l3hpQwPWVmyo/hYMqQrMBeJkqfmacUm5W78ItaSIIfUgV3xcArM/SbnhPeUTSQZtptJlWea3usi3lz1RnWnZQwEI0cazRsTrdWeIAcIpQ7GFCsW+XXTPD6ugxAbisNtOaY8fCGHWmNWXmxhz33f6Sbfkq07ODAhbiEJrdhoNv4zxxAIYJxR7Wxs/QW3YIzZY70q98Nr4OAFzGHD9v6yzH/2RaUw4R2kz/etVZ1uv1Wm8zvX8aUMBytOmGFDwoX4RzbB8EYF3Kzwc34Pu1WV6QIvNr0+2koF85YlWPCcAl3NKAosr0j+UfmdbfMr0Smr6FLIq7zLNbfWdAActSJsVCsx8cQrOrAECn3FRswhA7MjkoR6AJze536DGFZgPwWm2mH1IsZedfnentMq1dpldlnp0HU6oy35/hNwMKWB6h2Y9V6abPAFBFyO0pZZGDTCuONfv6OfSp4vsEgMtoM605gopfYo4b1lP3sr9mHms/UrIcp1tleuX1FpINC1W+yNxgeFBHoCHArSsXZu9jV92Qsrjhx8CnSl/Zhj519JgAa1L6wbt0PU/pCz98rL9//Ovy9+vMb+pjiYprr8i/y/R9eJvpe5Y28/VFaz1SsrzX5gjHLv5z7/P3jVYTWLcq3Q/atXzm5qgpzhuvk/yulFKvrDpMrdxEXNN7Ys6yqIHnVPv6V9b1vp6zZNpw66qs6zM7puqwBXW6AcRLX/cP6W6yVpnHt0l+n6Gu+fPqQ6b/873LPJokv89Upf+qsx5vM99z8+g7+veNVhNYvzJpdTH5uC49fa6TWR63UmrbVYcpvc263g9z1ofYVcLL1FnXe3vOKv220GxuWZV1fWbHVB3WrOyYeM0ilQ/pVv5P7Yskv89Q5edVlfm9zbY+r1Xm/R4qtfTFEOWz9i7zPicfjh/A7xutJrANc03i11IfctkfyHUyy+NWSm276jCVOut6L8xdbqoyRpN1vb/nrA8x7ON2VVnX53VM1WGtqnS7RC/xPnib6c21uPRD5v159VXm+3PN6X3m+XMd17sss9eoc50TXN4dP4jfN1pNYDvKuXVr+vxNXX/P5dTJLI9ZKbXtqsMUqjju8FQ5loZz3Gdd7/M565I9JqxJlXV9VsdUHdaoyuV7wHeZ1n1y0cd7qj5knhvdc57q8S7zqjPf6/X0tbvLMrx2h9Jrqzp+ML9vtJrAtrzPuj6DU9elAg3rZPLHqpTaftXh0krD/CHreh/MWU3gPOWzVW7Er+n9PmcJzeYWVVnX53RM1WFtqkzXA075HV8nkzzmofqQaYcUX2feI8erzO995n3Nnr5+d+n6srmV/+bbXPdI+fdPH9TvG60msC1V3Kh5WpdYOVpn2seolLqNqsOl3Wdd74E5Syg2r1VFztmpsjuJW1NlXZ/RMVWHtbnPer/jr/GztQxdqlxOuXl9n8z2+Eu9y3XUmf/1elrlPfMu039Xldf1LstZ/Fw/fYBLeFBTVBPYHqHZL/hSG6nOtI9PKXUbVYdLept1vf5z1oc4J5/LqLOu9/7cJd+FW1JlXZ/PMVWHNbnL9O+Jck9lqlXrTTL54++rD3l9vsE1V9VXuZ73uc5rNvTe/CXdEK3O696n5X9b8kPefvwzLule4runD/YPH//BFn0fQwq26S7Xmy4vUbuvLz/+eo46PVvLAEYq30O7cAmlkf4lDPlTzv+ZB0+VC2BHGvVr87oeE9akyvwBtXPRo61LeR9Wmd5U9wwPR5Re49ieg7LT9m/p3vdthnfeVumG8Z+nuy9S5zru9/Um11OegyVnUP073Wv474/1z4F/77/Tve+qj3XN9+Bzeq9nljI9uXQ1ge0Smv24yg+Tc79864kfm1LqNqoOl1DFcYanyrEzTEFfOVyv6TFhTaqs67M5puqwFnXme19scRfFc3/eD0e1pMdW5fr0QvNVkx7/J8AalRsUu3BQJt5W/wGsW7lIfB/HFw0pK/1+DFxeE7kmQ0qP+TYAzOGrzKf0nVMd5Vf6tX9nWY5X1ldZjtLftrm+co9NLzS9NgYUsDl/jS3nx+5iZSnAmr2L4cSQXewOZjrlJoq+cti30WMCzOHzzGuqgUj5ufp9eE6bZfW3pRda2mBpS8pz++XQPzSggPU6XEz6An1QdlHUAWBtygrlOVfNrUmb657Ly21o4312ih4TYHpT7WgYUmU6ZRfFLpzyZZaljV5oSid3yxhQwLqVLWjfhWMlWLUKAGtRBhNN6HNYadQGpreLvvIUu7wApjV35s9/ZVrlZrcFpf2WcrTTU7/G7pcpPHtUrQEFrN99fIEeK03NLxFoCLAGVbqbfvRb6sUb21UuHn8KfaroMQF4uTbdqRc8VvqMJsvVxD22SyrPZfPcv2RAAdvQxPbBY0KzAZavSheK7WZfP6HYXIugyGF6TIDpbHG3wS5udh/7R9aR69TE63YJLx5GGVDAdgg3fOwu3ZnmACxTuclXhT5le3kTuB595bC7CM0GmMLcA4p/ZB5N3OwuyvNdZz2aeN1eozx3L+6XDChgOw7nVDvj8EETgYYASyQUe1gbOQBcXxvHUpwiNBvg8v6Wec25W7DJbd/sPgwn1na/qom+/BzlOWvG/A8MKGBb2vjyfEpoNsCy3MXugCFCsVmScuNGXzlMjwlwWXMfL7jLvJrc5pCi7Ayus97FtOXI1T9Ff/4SbbprmdHH1BpQwPbcxza0Y+Vsc2ecAyxDFee3n1JuBreB5RCaPUyPCXBZ95nvJvYu1+m5mtzW/ZrSQ5QdmWs/6aNNd+P95zBkt68/58zBnwEFbFOTbkpNp9rXuwBwTVXczDulXKzeB5annB+8C32qGLoCXEq5iT3XDeBrDgmadDdy22xXeS3fZFuZTW26neBvYkHRsfJal0VWrz5y/veNVhO4beUG0Ies63M7db3teZ7qBT5OpdT6qg7PeZ91vaZz1i+BZauirzxVbwPrVmVdn7kxVYc1Kfcx/pVp3xPvsgxVusUpS/q8XKLeZ/tHIJb3aZN1vS5T1I+54OKzNf3Bx1QToMr0P9zXVk9DWeuFPk6l1LqqDqe8zbpezznrQ+wqYR2+iL7yVNWB9aqyrs+bz+a23WW698OHLO/m+V22sQjgXx//LLekyjaHTM/V+1z4c+SIJ9i2Nt32Mx68i0BDgDl9EwtHhhxCsdd+Li+3oYSXyjkbJjQb4DLuM83Pm9JvlTyENstyny6Eea1HB5Xntbxe5c9wn9vSphvKlD97OZ5s6z39fbprl1JtLmwNk5lzqglw0GRdn9+p60MeVqvWC3+sSql1VB36VFnX6zh3fRVYn7Kdf02fsznrQ+yIYp2qrOuzNqbqsFZNLvc+KKv7v8g63GUdOyrKc9rEz71j5bm429ffs/zXb3Gv85qelDHVBDh2n3V9hqeu9x+fl3oFj1Uptfyqw1NVnFl/qprAer3Puj5vc5ZMGdaoyro+Z2OqDmtWQpZf+x74kHXucKuzzPs479PdhDeYOK0MxMqijvL+W9pr+Fz96+NjrzOjNT1BY6oJcExo9qf1NgYUSqnLVB2eKsfBrOk1nLPeBdZNX3m63gbWpcq6PmNjqg5rV+3r14x/7beywv+wKv8+18uCep9uWGQocZ4yrCjPX3kel5rnVR5bkyt+Zy7xSblENQGeqiLc8Gm9W9FjVUott+pw7G3W9frNWR/i4o5tEJp9uhzhxppUWdfna0zVYSvqdDfpP+T0a/4+2z56qE53s7vs2JviKKHys708h4cV9PrWy6vTvYb3uc5xUB/S3Qv7Ngt5jf+Q7oFtUQloaQI8VefheCMALqMEhe1CUUKxfwx92kwUKgdXchc7goaUoMw/x+eddajS3bDaIj3aNpUhebmpWh39vfK9u8v2g4qfKs/D8fNR6r/y+Ln57GP9Ow/PT/vx139+/H35+7/Fz61refoa/nceXsPPnlSf49e2/Np+/PX/fvx9qd+e/HuL8ccAt2aXboD3NgBwWYezVun3XVz0sS336T7334Snyg2EsiioDClu7WYZwNR+CweHwQzrdtPv6bKDos42tXEBCKd8FVv1AC5lF31H+ZlShhP/Hfr8bwxv2K5yRIC+sl+54fBrYNnK53erx5LtokcDWLT/Hz1zDCnO3mHgAAAAAElFTkSuQmCC;" vertex="1" parent="1">
                    <mxGeometry x="338" y="94" width="94.09" height="19" as="geometry"/>
                </mxCell>
                <mxCell id="111" value="" style="endArrow=classic;html=1;strokeColor=#000000;fontColor=#000000;exitX=0.5;exitY=1;exitDx=0;exitDy=0;" edge="1" parent="1" source="109" target="73">
                    <mxGeometry width="50" height="50" relative="1" as="geometry">
                        <mxPoint x="307.05" y="126.75" as="sourcePoint"/>
                        <mxPoint x="445.05" y="126" as="targetPoint"/>
                    </mxGeometry>
                </mxCell>
                <mxCell id="112" value="&lt;span style=&quot;color: rgb(84, 91, 100); font-family: &amp;quot;Amazon Ember&amp;quot;, &amp;quot;Helvetica Neue&amp;quot;, Roboto, Arial, sans-serif; text-align: start;&quot;&gt;https&lt;/span&gt;" style="text;html=1;strokeColor=none;fillColor=none;align=center;verticalAlign=middle;whiteSpace=wrap;rounded=0;fontColor=#000000;" vertex="1" parent="1">
                    <mxGeometry x="375" y="167" width="60" height="30" as="geometry"/>
                </mxCell>
                <mxCell id="113" value="" style="shape=actor;whiteSpace=wrap;html=1;strokeColor=#2d1b1b;fillColor=none;" vertex="1" parent="1">
                    <mxGeometry x="-77" y="587" width="40" height="60" as="geometry"/>
                </mxCell>
            </root>
        </mxGraphModel>
    </diagram>
</mxfile>